<svg xmlns="http://www.w3.org/2000/svg" viewBox="0 0 24 24" fill="#ffffff">
  <path d="M12 2C6.477 2 2 6.589 2 12.248c0 4.526 2.865 8.366 6.839 9.72.5.096.682-.222.682-.494 0-.244-.009-.891-.014-1.75-2.782.617-3.37-1.387-3.37-1.387-.455-1.183-1.11-1.498-1.11-1.498-.908-.636.069-.623.069-.623 1.004.072 1.532 1.054 1.532 1.054.892 1.564 2.341 1.112 2.91.85.091-.664.349-1.112.635-1.368-2.22-.26-4.555-1.14-4.555-5.074 0-1.121.39-2.037 1.029-2.755-.103-.26-.446-1.307.098-2.725 0 0 .84-.276 2.75 1.052A9.325 9.325 0 0 1 12 6.836a9.27 9.27 0 0 1 2.504.347c1.909-1.328 2.748-1.052 2.748-1.052.546 1.418.203 2.465.1 2.725.64.718 1.027 1.634 1.027 2.755 0 3.944-2.339 4.811-4.566 5.067.359.319.678.946.678 1.907 0 1.377-.012 2.488-.012 2.827 0 .275.18.595.688.494C19.138 20.61 22 16.772 22 12.248 22 6.589 17.523 2 12 2Z"/>
</svg>